<?xml version="1.0" standalone="no"?>
<!DOCTYPE svg PUBLIC "-//W3C//DTD SVG 20010904//EN"
 "http://www.w3.org/TR/2001/REC-SVG-20010904/DTD/svg10.dtd">
<svg version="1.0" xmlns="http://www.w3.org/2000/svg"
 width="80.000000pt" height="80.000000pt" viewBox="0 0 80.000000 80.000000"
 preserveAspectRatio="xMidYMid meet">
<metadata>
Created by potrace 1.11, written by Peter Selinger 2001-2013
</metadata>
<g transform="translate(0.000000,80.000000) scale(0.100000,-0.100000)"
fill="#000000" stroke="none">
<path d="M0 400 l0 -400 400 0 400 0 0 400 0 400 -400 0 -400 0 0 -400z m248
197 c9 -11 12 -30 8 -50 -6 -30 0 -38 64 -102 l70 -70 84 84 c76 75 83 86 75
108 -12 33 -14 28 32 78 47 51 85 59 119 25 32 -32 26 -71 -19 -114 -34 -33
-44 -38 -76 -34 -34 4 -42 -1 -122 -76 l-86 -80 119 -112 c65 -62 115 -116
111 -120 -4 -4 -59 43 -122 106 l-115 115 -115 -115 c-63 -63 -118 -110 -122
-106 -4 4 45 58 110 119 l118 112 -74 74 c-66 64 -77 72 -95 62 -11 -6 -26
-11 -32 -11 -15 0 -120 100 -120 114 0 5 24 -13 53 -42 32 -31 61 -52 75 -52
12 0 22 3 22 7 0 4 -26 33 -57 65 -31 32 -54 61 -50 65 4 4 33 -19 65 -50 32
-31 61 -57 65 -57 4 0 7 10 7 23 0 14 -18 40 -45 67 -25 24 -45 48 -45 53 0
11 78 -57 98 -86z m150 -24 c-10 -2 -18 -9 -18 -14 0 -5 8 -10 18 -10 16 -1
16 -2 0 -6 -10 -2 -18 -13 -18 -24 0 -10 -4 -19 -10 -19 -5 0 -10 18 -10 40 0
37 2 40 28 39 16 -1 20 -3 10 -6z m-211 -225 c-2 -13 -4 -3 -4 22 0 25 2 35 4
23 2 -13 2 -33 0 -45z m363 23 c0 -28 15 -49 27 -38 3 4 9 21 13 39 l8 33 1
-38 c1 -41 -19 -58 -48 -40 -18 11 -28 73 -12 73 6 0 11 -13 11 -29z m-126
-163 c16 -26 -4 -52 -43 -56 -30 -3 -31 -2 -31 38 0 40 1 41 31 38 18 -2 37
-11 43 -20z"/>
<path d="M600 644 c-42 -38 -49 -59 -27 -86 27 -35 55 -32 97 10 22 22 40 45
40 51 0 15 -45 61 -60 61 -5 0 -28 -16 -50 -36z"/>
<path d="M370 191 c0 -32 6 -37 28 -22 19 11 11 45 -11 49 -13 3 -17 -3 -17
-27z"/>
</g>
</svg>
